<?xml version="1.0" encoding="UTF-8"?>
<!DOCTYPE svg PUBLIC "-//W3C//DTD SVG 1.1//EN" "http://www.w3.org/Graphics/SVG/1.1/DTD/svg11.dtd">
<svg xmlns="http://www.w3.org/2000/svg" version="1.1" width="512px" height="512px" style="shape-rendering:geometricPrecision; text-rendering:geometricPrecision; image-rendering:optimizeQuality; fill-rule:evenodd; clip-rule:evenodd" xmlns:xlink="http://www.w3.org/1999/xlink">
<g><path style="opacity:0.985" fill="#000000" d="M 247.5,-0.5 C 252.833,-0.5 258.167,-0.5 263.5,-0.5C 275.818,2.98533 283.651,10.9853 287,23.5C 287.333,107.833 287.667,192.167 288,276.5C 307.5,257 327,237.5 346.5,218C 364.601,205.36 381.101,207.193 396,223.5C 404.064,237.857 403.064,251.524 393,264.5C 354.5,303 316,341.5 277.5,380C 266.447,387.946 254.447,389.612 241.5,385C 238.567,383.729 235.901,382.062 233.5,380C 195,341.5 156.5,303 118,264.5C 105.36,246.399 107.193,229.899 123.5,215C 137.857,206.936 151.524,207.936 164.5,218C 184,237.5 203.5,257 223,276.5C 223.333,192.167 223.667,107.833 224,23.5C 227.349,10.9853 235.182,2.98533 247.5,-0.5 Z"/></g>
<g><path style="opacity:0.997" fill="#000000" d="M 511.5,471.5 C 511.5,476.833 511.5,482.167 511.5,487.5C 507.833,499.833 499.833,507.833 487.5,511.5C 332.833,511.5 178.167,511.5 23.5,511.5C 11.1667,507.833 3.16667,499.833 -0.5,487.5C -0.5,482.167 -0.5,476.833 -0.5,471.5C 2.98533,459.182 10.9853,451.349 23.5,448C 178.167,447.333 332.833,447.333 487.5,448C 500.015,451.349 508.015,459.182 511.5,471.5 Z"/></g>
</svg>
